<svg xmlns="http://www.w3.org/2000/svg" fill="none" viewBox="0 0 417 438"><g fill="var(--purple)"><path d="M32.7 87.323c0 2.079.97 3.188 2.91 3.188h1.109c1.94 0 3.048-1.11 3.048-3.188V6.792h29.375c2.079 0 3.326-.97 3.326-2.911v-.554c0-1.94-1.247-2.911-3.326-2.911H3.187C1.108.416 0 1.386 0 3.326v.555c0 1.94 1.108 2.91 3.187 2.91H32.7v80.532Z" /><path d="M101.754 87.323c0 2.079.97 3.188 2.91 3.188h.97c2.078 0 3.187-1.11 3.187-3.188V3.188c0-2.08-1.109-3.188-3.187-3.188h-.97c-1.94 0-2.91 1.109-2.91 3.188v84.135Z" /><path d="M145.617 87.323c0 2.079.693 3.188 2.633 3.188h1.109c2.217 0 2.909-1.11 2.909-3.188V8.039l27.158 53.503c1.109 2.633 2.495 4.297 6.097 4.297 3.326 0 4.85-1.664 5.958-4.297l27.297-53.503v79.284c0 2.079.97 3.188 2.91 3.188h.831c2.079 0 3.048-1.11 3.048-3.188V4.435c0-2.633-2.078-4.435-5.126-4.435h-1.386c-3.464 0-4.572 1.525-6.097 5.128l-27.296 54.196-27.297-54.196C156.702 1.525 155.871 0 152.13 0h-1.663c-2.91 0-4.85 1.802-4.85 4.435v82.888Z" /><path d="M265.248 90.095h54.87c2.079 0 3.326-.97 3.326-2.91v-.694c0-1.94-1.247-2.91-3.326-2.91h-51.822V47.126h39.075c2.217 0 3.464-.97 3.464-2.911V43.8c0-1.802-1.247-2.772-3.464-2.772h-39.075V6.792h50.575c2.079 0 3.464-.832 3.464-2.911v-.693c0-1.802-1.385-2.772-3.464-2.772h-53.623c-2.356 0-4.018 1.802-4.018 4.297v81.085c0 2.495 1.662 4.297 4.018 4.297Z" /><path d="M32.7 260.582c0 2.079.97 3.188 2.91 3.188h1.109c1.94 0 3.048-1.109 3.048-3.188v-80.531h29.375c2.079 0 3.326-.97 3.326-2.91v-.555c0-1.94-1.247-2.911-3.326-2.911H3.187c-2.079 0-3.187.971-3.187 2.911v.555c0 1.94 1.108 2.91 3.187 2.91H32.7v80.531Z" /><path d="M134.588 264.741c26.326 0 44.201-19.406 44.201-46.295 0-26.89-17.597-46.157-43.924-46.157-26.188 0-44.201 19.544-44.201 46.434 0 26.89 17.736 46.018 43.924 46.018Zm.138-6.099c-21.754 0-36.857-16.91-36.857-40.058 0-23.286 14.826-40.196 36.719-40.196 21.892 0 36.996 17.187 36.996 40.196 0 23.148-14.965 40.058-36.858 40.058Z" /><path d="M6.79 428.297C11.916 433.426 21.339 438 34.502 438c18.428 0 30.483-9.841 30.483-24.672 0-17.326-14.687-22.177-29.097-25.504-13.857-3.327-24.249-5.96-24.249-18.296 0-10.812 9.284-17.881 22.309-17.881 13.024 0 21.338 6.792 24.664 14.138.415.278 4.295-1.386 4.295-4.435 0-1.802-1.247-4.574-3.88-7.208-4.572-4.435-13.025-8.593-25.08-8.593-16.627 0-29.236 9.979-29.236 24.117 0 17.049 13.718 21.207 27.574 24.534 13.579 3.188 25.772 6.515 25.772 19.405 0 11.227-9.006 18.296-23.694 18.296-15.519 0-24.248-8.178-27.85-15.94-.278-.415-4.157 1.109-4.157 4.159 0 1.94 1.247 5.128 4.434 8.177Z" /><path d="M98.542 437.03h.97c2.079 0 3.187-1.109 3.187-3.188v-38.949h56.949v38.949c0 2.079.97 3.188 3.048 3.188h.97c2.079 0 3.048-1.109 3.048-3.188v-84.135c0-2.079-.969-3.188-3.048-3.188h-.97c-2.078 0-3.048 1.109-3.048 3.188v38.81h-56.949v-38.81c0-2.079-1.108-3.188-3.187-3.188h-.97c-1.94 0-2.91 1.109-2.91 3.188v84.135c0 2.079.97 3.188 2.91 3.188Z" /><path d="M203.835 433.842c0 2.079.97 3.188 2.91 3.188h.97c2.078 0 3.187-1.109 3.187-3.188v-84.135c0-2.079-1.109-3.188-3.187-3.188h-.97c-1.94 0-2.91 1.109-2.91 3.188v84.135Z" /><path d="M250.331 437.03h.97c2.217 0 3.048-1.109 3.048-3.188v-78.036l55.841 78.313c1.385 2.079 2.078 2.911 4.711 2.911h.554c2.217 0 3.603-1.941 3.603-4.574v-82.749c0-2.218-.832-3.188-2.772-3.188h-.97c-2.078 0-2.909.97-2.909 3.188v75.957l-53.762-75.403c-1.663-2.356-2.91-3.742-5.404-3.742h-1.802c-2.494 0-3.741 2.079-3.741 4.713v82.61c0 2.079.693 3.188 2.633 3.188Z" /><path d="M358.804 436.614h54.871c2.078 0 3.325-.97 3.325-2.911v-.693c0-1.94-1.247-2.911-3.325-2.911h-51.822v-36.453h39.074c2.217 0 3.464-.971 3.464-2.911v-.416c0-1.802-1.247-2.772-3.464-2.772h-39.074v-34.236h50.574c2.079 0 3.465-.832 3.465-2.911v-.693c0-1.802-1.386-2.772-3.465-2.772h-53.623c-2.355 0-4.018 1.802-4.018 4.297v81.085c0 2.495 1.663 4.297 4.018 4.297Z" /></g></svg>