<svg xmlns="http://www.w3.org/2000/svg" xmlns:xlink="http://www.w3.org/1999/xlink" fill="none" viewBox="0 0 202 211"><defs><path id="reuse-0" d="M19.576 40.72c0 .96.448 1.472 1.344 1.472h.512c.896 0 1.408-.512 1.408-1.472V3.536h13.568c.96 0 1.536-.448 1.536-1.344v-.256c0-.896-.576-1.344-1.536-1.344H5.944c-.96 0-1.472.448-1.472 1.344v.256c0 .896.512 1.344 1.472 1.344h13.632V40.72Z" style="mix-blend-mode:overlay"/><path id="reuse-1" d="M170.199 202h25.344c.96 0 1.536-.448 1.536-1.344v-.32c0-.896-.576-1.344-1.536-1.344h-23.936V182.16h18.048c1.024 0 1.6-.448 1.6-1.344v-.192c0-.832-.576-1.28-1.6-1.28h-18.048v-15.808h23.36c.96 0 1.6-.384 1.6-1.344v-.32c0-.832-.64-1.28-1.6-1.28h-24.768c-1.088 0-1.856.832-1.856 1.984v37.44c0 1.152.768 1.984 1.856 1.984Z" style="mix-blend-mode:overlay"/></defs><g fill="#fff" filter="url(#a)" shape-rendering="crispEdges"><use xlink:href="#reuse-0" style="mix-blend-mode:overlay"/><use xlink:href="#reuse-0" style="mix-blend-mode:overlay"/><path d="M19.576 40.72c0 .96.448 1.472 1.344 1.472h.512c.896 0 1.408-.512 1.408-1.472V3.536h13.568c.96 0 1.536-.448 1.536-1.344v-.256c0-.896-.576-1.344-1.536-1.344H5.944c-.96 0-1.472.448-1.472 1.344v.256c0 .896.512 1.344 1.472 1.344h13.632V40.72ZM51.471 40.72c0 .96.448 1.472 1.344 1.472h.448c.96 0 1.472-.512 1.472-1.472V1.872c0-.96-.512-1.472-1.472-1.472h-.448c-.896 0-1.344.512-1.344 1.472V40.72Z" style="mix-blend-mode:overlay"/><path d="M51.471 40.72c0 .96.448 1.472 1.344 1.472h.448c.96 0 1.472-.512 1.472-1.472V1.872c0-.96-.512-1.472-1.472-1.472h-.448c-.896 0-1.344.512-1.344 1.472V40.72Z" style="mix-blend-mode:overlay"/><path d="M51.471 40.72c0 .96.448 1.472 1.344 1.472h.448c.96 0 1.472-.512 1.472-1.472V1.872c0-.96-.512-1.472-1.472-1.472h-.448c-.896 0-1.344.512-1.344 1.472V40.72ZM71.731 40.72c0 .96.32 1.472 1.216 1.472h.512c1.024 0 1.344-.512 1.344-1.472V4.112l12.544 24.704c.512 1.216 1.152 1.984 2.816 1.984 1.536 0 2.24-.768 2.752-1.984l12.608-24.704V40.72c0 .96.448 1.472 1.344 1.472h.384c.96 0 1.408-.512 1.408-1.472V2.448c0-1.216-.96-2.048-2.368-2.048h-.64c-1.6 0-2.112.704-2.816 2.368L90.227 27.792 77.619 2.768C76.851 1.104 76.467.4 74.739.4h-.768c-1.344 0-2.24.832-2.24 2.048V40.72Z" style="mix-blend-mode:overlay"/><path d="M71.731 40.72c0 .96.32 1.472 1.216 1.472h.512c1.024 0 1.344-.512 1.344-1.472V4.112l12.544 24.704c.512 1.216 1.152 1.984 2.816 1.984 1.536 0 2.24-.768 2.752-1.984l12.608-24.704V40.72c0 .96.448 1.472 1.344 1.472h.384c.96 0 1.408-.512 1.408-1.472V2.448c0-1.216-.96-2.048-2.368-2.048h-.64c-1.6 0-2.112.704-2.816 2.368L90.227 27.792 77.619 2.768C76.851 1.104 76.467.4 74.739.4h-.768c-1.344 0-2.24.832-2.24 2.048V40.72Z" style="mix-blend-mode:overlay"/><path d="M71.731 40.72c0 .96.32 1.472 1.216 1.472h.512c1.024 0 1.344-.512 1.344-1.472V4.112l12.544 24.704c.512 1.216 1.152 1.984 2.816 1.984 1.536 0 2.24-.768 2.752-1.984l12.608-24.704V40.72c0 .96.448 1.472 1.344 1.472h.384c.96 0 1.408-.512 1.408-1.472V2.448c0-1.216-.96-2.048-2.368-2.048h-.64c-1.6 0-2.112.704-2.816 2.368L90.227 27.792 77.619 2.768C76.851 1.104 76.467.4 74.739.4h-.768c-1.344 0-2.24.832-2.24 2.048V40.72ZM126.987 42h25.344c.96 0 1.536-.448 1.536-1.344v-.32c0-.896-.576-1.344-1.536-1.344h-23.936V22.16h18.048c1.024 0 1.6-.448 1.6-1.344v-.192c0-.832-.576-1.28-1.6-1.28h-18.048V3.536h23.36c.96 0 1.6-.384 1.6-1.344v-.32c0-.832-.64-1.28-1.6-1.28h-24.768c-1.088 0-1.856.832-1.856 1.984v37.44c0 1.152.768 1.984 1.856 1.984Z" style="mix-blend-mode:overlay"/><path d="M126.987 42h25.344c.96 0 1.536-.448 1.536-1.344v-.32c0-.896-.576-1.344-1.536-1.344h-23.936V22.16h18.048c1.024 0 1.6-.448 1.6-1.344v-.192c0-.832-.576-1.28-1.6-1.28h-18.048V3.536h23.36c.96 0 1.6-.384 1.6-1.344v-.32c0-.832-.64-1.28-1.6-1.28h-24.768c-1.088 0-1.856.832-1.856 1.984v37.44c0 1.152.768 1.984 1.856 1.984Z" style="mix-blend-mode:overlay"/><path d="M126.987 42h25.344c.96 0 1.536-.448 1.536-1.344v-.32c0-.896-.576-1.344-1.536-1.344h-23.936V22.16h18.048c1.024 0 1.6-.448 1.6-1.344v-.192c0-.832-.576-1.28-1.6-1.28h-18.048V3.536h23.36c.96 0 1.6-.384 1.6-1.344v-.32c0-.832-.64-1.28-1.6-1.28h-24.768c-1.088 0-1.856.832-1.856 1.984v37.44c0 1.152.768 1.984 1.856 1.984ZM19.576 120.72c0 .96.448 1.472 1.344 1.472h.512c.896 0 1.408-.512 1.408-1.472V83.536h13.568c.96 0 1.536-.448 1.536-1.344v-.256c0-.896-.576-1.344-1.536-1.344H5.944c-.96 0-1.472.448-1.472 1.344v.256c0 .896.512 1.344 1.472 1.344h13.632v37.184Z" style="mix-blend-mode:overlay"/><path d="M19.576 120.72c0 .96.448 1.472 1.344 1.472h.512c.896 0 1.408-.512 1.408-1.472V83.536h13.568c.96 0 1.536-.448 1.536-1.344v-.256c0-.896-.576-1.344-1.536-1.344H5.944c-.96 0-1.472.448-1.472 1.344v.256c0 .896.512 1.344 1.472 1.344h13.632v37.184Z" style="mix-blend-mode:overlay"/><path d="M19.576 120.72c0 .96.448 1.472 1.344 1.472h.512c.896 0 1.408-.512 1.408-1.472V83.536h13.568c.96 0 1.536-.448 1.536-1.344v-.256c0-.896-.576-1.344-1.536-1.344H5.944c-.96 0-1.472.448-1.472 1.344v.256c0 .896.512 1.344 1.472 1.344h13.632v37.184ZM66.636 122.64c12.16 0 20.416-8.96 20.416-21.376s-8.128-21.312-20.288-21.312c-12.095 0-20.415 9.024-20.415 21.44 0 12.416 8.192 21.248 20.288 21.248Zm.065-2.816c-10.048 0-17.024-7.808-17.024-18.496 0-10.752 6.848-18.56 16.96-18.56 10.112 0 17.088 7.936 17.088 18.56 0 10.688-6.912 18.496-17.024 18.496Z" style="mix-blend-mode:overlay"/><path d="M66.636 122.64c12.16 0 20.416-8.96 20.416-21.376s-8.128-21.312-20.288-21.312c-12.095 0-20.415 9.024-20.415 21.44 0 12.416 8.192 21.248 20.288 21.248Zm.065-2.816c-10.048 0-17.024-7.808-17.024-18.496 0-10.752 6.848-18.56 16.96-18.56 10.112 0 17.088 7.936 17.088 18.56 0 10.688-6.912 18.496-17.024 18.496Z" style="mix-blend-mode:overlay"/><path d="M66.636 122.64c12.16 0 20.416-8.96 20.416-21.376s-8.128-21.312-20.288-21.312c-12.095 0-20.415 9.024-20.415 21.44 0 12.416 8.192 21.248 20.288 21.248Zm.065-2.816c-10.048 0-17.024-7.808-17.024-18.496 0-10.752 6.848-18.56 16.96-18.56 10.112 0 17.088 7.936 17.088 18.56 0 10.688-6.912 18.496-17.024 18.496ZM7.608 198.16c2.368 2.368 6.72 4.48 12.8 4.48 8.512 0 14.08-4.544 14.08-11.392 0-8-6.784-10.24-13.44-11.776-6.4-1.536-11.2-2.752-11.2-8.448 0-4.992 4.288-8.256 10.304-8.256s9.856 3.136 11.392 6.528c.192.128 1.984-.64 1.984-2.048 0-.832-.576-2.112-1.792-3.328-2.112-2.048-6.016-3.968-11.584-3.968-7.68 0-13.504 4.608-13.504 11.136 0 7.872 6.336 9.792 12.736 11.328 6.272 1.472 11.904 3.008 11.904 8.96 0 5.184-4.16 8.448-10.944 8.448-7.168 0-11.2-3.776-12.864-7.36-.128-.192-1.92.512-1.92 1.92 0 .896.576 2.368 2.048 3.776Z" style="mix-blend-mode:overlay"/><path d="M7.608 198.16c2.368 2.368 6.72 4.48 12.8 4.48 8.512 0 14.08-4.544 14.08-11.392 0-8-6.784-10.24-13.44-11.776-6.4-1.536-11.2-2.752-11.2-8.448 0-4.992 4.288-8.256 10.304-8.256s9.856 3.136 11.392 6.528c.192.128 1.984-.64 1.984-2.048 0-.832-.576-2.112-1.792-3.328-2.112-2.048-6.016-3.968-11.584-3.968-7.68 0-13.504 4.608-13.504 11.136 0 7.872 6.336 9.792 12.736 11.328 6.272 1.472 11.904 3.008 11.904 8.96 0 5.184-4.16 8.448-10.944 8.448-7.168 0-11.2-3.776-12.864-7.36-.128-.192-1.92.512-1.92 1.92 0 .896.576 2.368 2.048 3.776Z" style="mix-blend-mode:overlay"/><path d="M7.608 198.16c2.368 2.368 6.72 4.48 12.8 4.48 8.512 0 14.08-4.544 14.08-11.392 0-8-6.784-10.24-13.44-11.776-6.4-1.536-11.2-2.752-11.2-8.448 0-4.992 4.288-8.256 10.304-8.256s9.856 3.136 11.392 6.528c.192.128 1.984-.64 1.984-2.048 0-.832-.576-2.112-1.792-3.328-2.112-2.048-6.016-3.968-11.584-3.968-7.68 0-13.504 4.608-13.504 11.136 0 7.872 6.336 9.792 12.736 11.328 6.272 1.472 11.904 3.008 11.904 8.96 0 5.184-4.16 8.448-10.944 8.448-7.168 0-11.2-3.776-12.864-7.36-.128-.192-1.92.512-1.92 1.92 0 .896.576 2.368 2.048 3.776ZM49.987 202.192h.448c.96 0 1.472-.512 1.472-1.472v-17.984h26.305v17.984c0 .96.447 1.472 1.407 1.472h.448c.96 0 1.409-.512 1.409-1.472v-38.848c0-.96-.448-1.472-1.409-1.472h-.447c-.96 0-1.409.512-1.409 1.472v17.92H51.909v-17.92c0-.96-.513-1.472-1.473-1.472h-.448c-.895 0-1.343.512-1.343 1.472v38.848c0 .96.448 1.472 1.343 1.472Z" style="mix-blend-mode:overlay"/><path d="M49.987 202.192h.448c.96 0 1.472-.512 1.472-1.472v-17.984h26.305v17.984c0 .96.447 1.472 1.407 1.472h.448c.96 0 1.409-.512 1.409-1.472v-38.848c0-.96-.448-1.472-1.409-1.472h-.447c-.96 0-1.409.512-1.409 1.472v17.92H51.909v-17.92c0-.96-.513-1.472-1.473-1.472h-.448c-.895 0-1.343.512-1.343 1.472v38.848c0 .96.448 1.472 1.343 1.472Z" style="mix-blend-mode:overlay"/><path d="M49.987 202.192h.448c.96 0 1.472-.512 1.472-1.472v-17.984h26.305v17.984c0 .96.447 1.472 1.407 1.472h.448c.96 0 1.409-.512 1.409-1.472v-38.848c0-.96-.448-1.472-1.409-1.472h-.447c-.96 0-1.409.512-1.409 1.472v17.92H51.909v-17.92c0-.96-.513-1.472-1.473-1.472h-.448c-.895 0-1.343.512-1.343 1.472v38.848c0 .96.448 1.472 1.343 1.472ZM98.621 200.72c0 .96.448 1.472 1.344 1.472h.448c.96 0 1.472-.512 1.472-1.472v-38.848c0-.96-.512-1.472-1.472-1.472h-.448c-.896 0-1.344.512-1.344 1.472v38.848Z" style="mix-blend-mode:overlay"/><path d="M98.621 200.72c0 .96.448 1.472 1.344 1.472h.448c.96 0 1.472-.512 1.472-1.472v-38.848c0-.96-.512-1.472-1.472-1.472h-.448c-.896 0-1.344.512-1.344 1.472v38.848Z" style="mix-blend-mode:overlay"/><path d="M98.621 200.72c0 .96.448 1.472 1.344 1.472h.448c.96 0 1.472-.512 1.472-1.472v-38.848c0-.96-.512-1.472-1.472-1.472h-.448c-.896 0-1.344.512-1.344 1.472v38.848ZM120.097 202.192h.448c1.024 0 1.408-.512 1.408-1.472v-36.032l25.792 36.16c.64.96.96 1.344 2.176 1.344h.256c1.024 0 1.664-.896 1.664-2.112v-38.208c0-1.024-.384-1.472-1.28-1.472h-.448c-.96 0-1.344.448-1.344 1.472v35.072l-24.832-34.816c-.768-1.088-1.344-1.728-2.496-1.728h-.832c-1.152 0-1.728.96-1.728 2.176v38.144c0 .96.32 1.472 1.216 1.472Z" style="mix-blend-mode:overlay"/><path d="M120.097 202.192h.448c1.024 0 1.408-.512 1.408-1.472v-36.032l25.792 36.16c.64.96.96 1.344 2.176 1.344h.256c1.024 0 1.664-.896 1.664-2.112v-38.208c0-1.024-.384-1.472-1.28-1.472h-.448c-.96 0-1.344.448-1.344 1.472v35.072l-24.832-34.816c-.768-1.088-1.344-1.728-2.496-1.728h-.832c-1.152 0-1.728.96-1.728 2.176v38.144c0 .96.32 1.472 1.216 1.472Z" style="mix-blend-mode:overlay"/><path d="M120.097 202.192h.448c1.024 0 1.408-.512 1.408-1.472v-36.032l25.792 36.16c.64.96.96 1.344 2.176 1.344h.256c1.024 0 1.664-.896 1.664-2.112v-38.208c0-1.024-.384-1.472-1.28-1.472h-.448c-.96 0-1.344.448-1.344 1.472v35.072l-24.832-34.816c-.768-1.088-1.344-1.728-2.496-1.728h-.832c-1.152 0-1.728.96-1.728 2.176v38.144c0 .96.32 1.472 1.216 1.472ZM170.199 202h25.344c.96 0 1.536-.448 1.536-1.344v-.32c0-.896-.576-1.344-1.536-1.344h-23.936V182.16h18.048c1.024 0 1.6-.448 1.6-1.344v-.192c0-.832-.576-1.28-1.6-1.28h-18.048v-15.808h23.36c.96 0 1.6-.384 1.6-1.344v-.32c0-.832-.64-1.28-1.6-1.28h-24.768c-1.088 0-1.856.832-1.856 1.984v37.44c0 1.152.768 1.984 1.856 1.984Z" style="mix-blend-mode:overlay"/><use xlink:href="#reuse-1" style="mix-blend-mode:overlay"/><use xlink:href="#reuse-1" style="mix-blend-mode:overlay"/></g><defs><filter id="a" width="200.607" height="210.24" x=".472" y=".4" color-interpolation-filters="sRGB" filterUnits="userSpaceOnUse"><feFlood flood-opacity="0" result="BackgroundImageFix"/><feColorMatrix in="SourceAlpha" result="hardAlpha" values="0 0 0 0 0 0 0 0 0 0 0 0 0 0 0 0 0 0 127 0"/><feOffset dy="4"/><feGaussianBlur stdDeviation="2"/><feComposite in2="hardAlpha" operator="out"/><feColorMatrix values="0 0 0 0 0 0 0 0 0 0 0 0 0 0 0 0 0 0 0.25 0"/><feBlend in2="BackgroundImageFix" result="effect1_dropShadow_3_10"/><feBlend in="SourceGraphic" in2="effect1_dropShadow_3_10" result="shape"/></filter></defs></svg>